<?xml version="1.0" encoding="UTF-8" standalone="no"?>
<!-- Uploaded to: SVG Repo, www.svgrepo.com, Generator: SVG Repo Mixer Tools -->

<svg
   width="800px"
   height="800px"
   viewBox="0 0 24 24"
   fill="none"
   version="1.1"
   id="svg1"
   sodipodi:docname="smart-clipper.logo.svg"
   xml:space="preserve"
   inkscape:version="1.4.2 (f4327f4, 2025-05-13)"
   xmlns:inkscape="http://www.inkscape.org/namespaces/inkscape"
   xmlns:sodipodi="http://sodipodi.sourceforge.net/DTD/sodipodi-0.dtd"
   xmlns="http://www.w3.org/2000/svg"
   xmlns:svg="http://www.w3.org/2000/svg"><defs
     id="defs1" /><sodipodi:namedview
     id="namedview1"
     pagecolor="#ffffff"
     bordercolor="#000000"
     borderopacity="0.25"
     inkscape:showpageshadow="2"
     inkscape:pageopacity="0.0"
     inkscape:pagecheckerboard="0"
     inkscape:deskcolor="#d1d1d1"
     inkscape:zoom="0.77958523"
     inkscape:cx="116.08737"
     inkscape:cy="330.94521"
     inkscape:window-width="3840"
     inkscape:window-height="2036"
     inkscape:window-x="-12"
     inkscape:window-y="-12"
     inkscape:window-maximized="1"
     inkscape:current-layer="g2" /><g
     id="g2"><g
       id="path1"
       style="opacity:1;fill:#aa0000"
       transform="matrix(1.0032314,0,0,1.0197136,-0.03877684,-0.23656299)"><path
         style="baseline-shift:baseline;display:inline;overflow:visible;vector-effect:none;fill:#aa0000;stroke-linecap:round;stroke-linejoin:round;enable-background:accumulate;stop-color:#000000;stop-opacity:1"
         d="m 22.821182,10.664294 c 0.414056,0.82935 0.414056,1.842062 0,2.671412 l -4.081298,8.17362 c -0.428446,0.857959 -1.234185,1.388835 -2.108005,1.388835 H 7.3681082 c -0.8737483,0 -1.6795717,-0.530876 -2.1079448,-1.388835 l -4.0812973,-8.17362 c -0.41412773,-0.82935 -0.41412773,-1.842062 0,-2.671412 L 5.2601634,2.4906458 C 5.6885365,1.6327425 6.4943599,1.1018387 7.3681082,1.1018387 h 9.2637708 c 0.87382,0 1.679559,0.5309038 2.108005,1.3888071 z"
         id="path5" /><path
         style="baseline-shift:baseline;display:inline;overflow:visible;vector-effect:none;fill:#aa0000;stroke-linecap:round;stroke-linejoin:round;enable-background:accumulate;stop-color:#000000;stop-opacity:1"
         d="m 7.3671875,0.32617188 c -1.1877017,0 -2.255956,0.72723722 -2.8007813,1.81835942 L 0.48632813,10.318359 c -0.52678402,1.054961 -0.52678402,2.308321 0,3.363282 l 4.08007807,8.173828 c 0.5448214,1.091185 1.6130961,1.818359 2.8007813,1.818359 h 9.2656245 c 1.187732,0 2.255907,-0.727254 2.800782,-1.818359 l 4.080078,-8.173828 c 0.526685,-1.054945 0.526685,-2.308337 0,-3.363282 L 19.433594,2.1445313 C 18.888716,1.0534887 17.82056,0.32617187 16.632812,0.32617188 Z m 0,1.55078122 h 9.2656245 c 0.559893,0 1.102049,0.3361735 1.414063,0.9609375 l 4.080078,8.1718754 c 0.301427,0.603755 0.301427,1.376713 0,1.980468 l -4.080078,8.171875 c -0.312018,0.624813 -0.854154,0.960938 -1.414063,0.960938 H 7.3671875 c -0.5598114,0 -1.1021377,-0.334252 -1.4140625,-0.958985 L 1.8730469,12.990234 c -0.3014715,-0.603739 -0.3014715,-1.376729 0,-1.980468 L 5.953125,2.8359375 C 6.2650459,2.2112531 6.8073926,1.8769531 7.3671875,1.8769531 Z"
         id="path6" /></g><g
       style="fill:#f9f9f9"
       id="g1"
       transform="matrix(0.79219719,0,0,0.79219719,2.4935965,2.4936339)"><path
         d="m 9.75,12 c 0,-1.2426 1.0074,-2.25 2.25,-2.25 1.2426,0 2.25,1.0074 2.25,2.25 0,1.2426 -1.0074,2.25 -2.25,2.25 -1.2426,0 -2.25,-1.0074 -2.25,-2.25 z"
         fill="#1c274c"
         id="path1-2"
         style="fill:#f9f9f9" /><path
         fill-rule="evenodd"
         clip-rule="evenodd"
         d="m 2,12 c 0,1.6394 0.42496,2.1915 1.27489,3.2957 C 4.97196,17.5004 7.81811,20 12,20 16.1819,20 19.028,17.5004 20.7251,15.2957 21.575,14.1915 22,13.6394 22,12 22,10.3606 21.575,9.80853 20.7251,8.70433 19.028,6.49956 16.1819,4 12,4 7.81811,4 4.97196,6.49956 3.27489,8.70433 2.42496,9.80853 2,10.3606 2,12 Z M 12,8.25 c -2.07107,0 -3.75,1.67893 -3.75,3.75 0,2.0711 1.67893,3.75 3.75,3.75 2.0711,0 3.75,-1.6789 3.75,-3.75 0,-2.07107 -1.6789,-3.75 -3.75,-3.75 z"
         fill="#1c274c"
         id="path2"
         style="fill:#f9f9f9" /></g></g></svg>
