<?xml version="1.0" encoding="UTF-8" standalone="no"?>
<!-- Created with Inkscape (http://www.inkscape.org/) -->

<svg
   width="65.306122mm"
   height="71.820534mm"
   viewBox="0 0 65.306122 71.820534"
   version="1.1"
   id="svg1"
   xml:space="preserve"
   inkscape:version="1.4.2 (f4327f4, 2025-05-13)"
   sodipodi:docname="hexa-logo.svg"
   xmlns:inkscape="http://www.inkscape.org/namespaces/inkscape"
   xmlns:sodipodi="http://sodipodi.sourceforge.net/DTD/sodipodi-0.dtd"
   xmlns:xlink="http://www.w3.org/1999/xlink"
   xmlns="http://www.w3.org/2000/svg"
   xmlns:svg="http://www.w3.org/2000/svg"><sodipodi:namedview
     id="namedview1"
     pagecolor="#ffffff"
     bordercolor="#000000"
     borderopacity="0.25"
     inkscape:showpageshadow="2"
     inkscape:pageopacity="0.0"
     inkscape:pagecheckerboard="0"
     inkscape:deskcolor="#d1d1d1"
     inkscape:document-units="mm"
     inkscape:zoom="1.5714646"
     inkscape:cx="168.31432"
     inkscape:cy="4.4544432"
     inkscape:window-width="3840"
     inkscape:window-height="2036"
     inkscape:window-x="-12"
     inkscape:window-y="-12"
     inkscape:window-maximized="1"
     inkscape:current-layer="layer1" /><defs
     id="defs1"><linearGradient
       id="linearGradient36"
       inkscape:collect="always"><stop
         style="stop-color:#09fffa;stop-opacity:1;"
         offset="0"
         id="stop35" /><stop
         style="stop-color:#40b5c2;stop-opacity:0.99888641;"
         offset="1"
         id="stop36" /></linearGradient><linearGradient
       id="linearGradient33"
       inkscape:collect="always"><stop
         style="stop-color:#0aff09;stop-opacity:1;"
         offset="0"
         id="stop33" /><stop
         style="stop-color:#0aff09;stop-opacity:0;"
         offset="1"
         id="stop34" /></linearGradient><linearGradient
       inkscape:collect="always"
       xlink:href="#linearGradient36"
       id="linearGradient35"
       x1="-0.95730883"
       y1="-1.8960156"
       x2="24.957296"
       y2="25.893997"
       gradientUnits="userSpaceOnUse" /><linearGradient
       inkscape:collect="always"
       xlink:href="#linearGradient33"
       id="linearGradient37"
       x1="0"
       y1="0"
       x2="1"
       y2="0"
       gradientUnits="userSpaceOnUse" /><linearGradient
       inkscape:collect="always"
       xlink:href="#linearGradient36"
       id="linearGradient38"
       gradientUnits="userSpaceOnUse"
       x1="-0.95730883"
       y1="-1.8960156"
       x2="24.957296"
       y2="25.893997" /></defs><g
     inkscape:label="Layer 1"
     inkscape:groupmode="layer"
     id="layer1"
     transform="translate(-72.386511,-112.51925)"><g
       style="fill:url(#linearGradient37);stroke:#a02c2c;stroke-width:2;stroke-linecap:round;stroke-linejoin:round"
       id="g1"
       transform="matrix(3.2653068,0,0,3.2653068,65.855899,109.24757)" /><g
       style="fill:url(#linearGradient35);stroke:#a02c2c;stroke-width:2;stroke-linecap:round;stroke-linejoin:round"
       id="g2"
       transform="matrix(1.7186704,0,0,1.7186704,84.415536,127.80721)"><path
         id="path3"
         style="baseline-shift:baseline;display:inline;overflow:visible;opacity:1;vector-effect:none;fill:url(#linearGradient38);fill-opacity:1;stroke:none;stroke-linecap:butt;stroke-linejoin:miter;enable-background:accumulate;stop-color:#000000;stop-opacity:1"
         d="m 14.798828,3.0449219 a 1,1 0 0 0 -1.253906,0.65625 L 8.5449219,19.701172 a 1,1 0 0 0 0.65625,1.253906 1,1 0 0 0 1.2539061,-0.65625 l 5,-15.9999999 A 1,1 0 0 0 14.798828,3.0449219 Z M 6,7 A 1,1 0 0 0 5.2929687,7.2929687 l -4,4.0000003 a 1.0001,1.0001 0 0 0 0,1.414062 l 4,4 a 1,1 0 0 0 1.4140625,0 1,1 0 0 0 0,-1.414062 L 3.4140625,12 6.7070312,8.7070313 a 1,1 0 0 0 0,-1.4140626 A 1,1 0 0 0 6,7 Z m 11.292969,0.2929687 a 1,1 0 0 0 0,1.4140626 L 20.585937,12 17.292969,15.292969 a 1,1 0 0 0 0,1.414062 1,1 0 0 0 1.414062,0 l 4,-4 a 1.0001,1.0001 0 0 0 0,-1.414062 l -4,-4.0000003 a 1,1 0 0 0 -1.414062,0 z M 12,-8.8952226 c -0.981999,0 -1.963858,0.2551845 -2.8424334,0.7607033 l -13.2993194,7.5996114 a 1.9000928,1.9000928 0 0 0 -0.00742,0.003711 C -5.9082384,0.48439758 -6.9969452,2.3654857 -6.9990287,4.396676 a 1.9000928,1.9000928 0 0 0 0,0.00371 V 19.59961 a 1.9000928,1.9000928 0 0 0 0,0.0038 c 0.00209,2.03119 1.0907903,3.912278 2.8498543,4.927873 a 1.9000928,1.9000928 0 0 0 0.00743,0.0038 l 13.2993195,7.599612 c 1.7595789,1.012435 3.9338549,1.011521 5.6922869,-0.0038 L 28.14176,24.534993 a 1.9000928,1.9000928 0 0 0 0.0074,-0.0038 c 1.759063,-1.015595 2.84777,-2.896683 2.849854,-4.927873 a 1.9000928,1.9000928 0 0 0 4e-6,-0.0037 V 4.4003867 a 1.9000928,1.9000928 0 0 0 0,-0.0037 c -0.0021,-2.0311903 -1.090791,-3.91227843 -2.849854,-4.92787302 a 1.9000928,1.9000928 0 0 0 -0.0074,-0.003705 L 14.849854,-8.1308084 C 13.969426,-8.6391244 12.984712,-8.8952226 12,-8.8952226 Z m -0.949952,4.0558475 c 0.590469,-0.3409079 1.309434,-0.3409079 1.899903,0 a 1.9000928,1.9000928 0 0 0 0.0074,0.0037 l 13.29191,7.5959064 c 0.588856,0.339976 0.948042,0.9603994 0.949952,1.6401506 V 19.595899 c -6.99e-4,0.681104 -0.360096,1.303309 -0.949952,1.643861 l -13.291899,7.595901 a 1.9000928,1.9000928 0 0 0 -0.0074,0.0038 c -0.590469,0.340909 -1.309434,0.340909 -1.899903,0 a 1.9000928,1.9000928 0 0 0 -0.0074,-0.0038 L -2.2492715,21.23976 C -2.838128,20.899783 -3.1973139,20.279361 -3.199223,19.59961 V 4.4040974 4.4003867 c 0.0019,-0.6797512 0.361095,-1.3001746 0.9499515,-1.6401506 L 11.042627,-4.8356644 a 1.9000928,1.9000928 0 0 0 0.0074,-0.00371 z" /></g></g></svg>
