<?xml version="1.0" encoding="UTF-8" standalone="no"?>
<svg
   width="40"
   height="40"
   viewBox="0 0 24 24"
   fill="none"
   stroke="currentColor"
   stroke-width="1.25"
   stroke-linecap="round"
   stroke-linejoin="round"
   class="lucide lucide-hexagon-icon lucide-hexagon"
   version="1.1"
   id="svg1"
   sodipodi:docname="clip-volt.svg"
   xml:space="preserve"
   inkscape:version="1.4.2 (f4327f4, 2025-05-13)"
   xmlns:inkscape="http://www.inkscape.org/namespaces/inkscape"
   xmlns:sodipodi="http://sodipodi.sourceforge.net/DTD/sodipodi-0.dtd"
   xmlns:xlink="http://www.w3.org/1999/xlink"
   xmlns="http://www.w3.org/2000/svg"
   xmlns:svg="http://www.w3.org/2000/svg"><defs
     id="defs1"><linearGradient
       id="linearGradient1"
       inkscape:collect="always"><stop
         style="stop-color:#000000;stop-opacity:1;"
         offset="0"
         id="stop3" /><stop
         style="stop-color:#0b1728;stop-opacity:1;"
         offset="0.01084995"
         id="stop1" /><stop
         style="stop-color:#1a1a1a;stop-opacity:1;"
         offset="1"
         id="stop2" /></linearGradient><radialGradient
       inkscape:collect="always"
       xlink:href="#linearGradient1"
       id="radialGradient3"
       cx="11.782247"
       cy="12.054285"
       fx="11.782247"
       fy="12.054285"
       r="10.917013"
       gradientTransform="matrix(1,0,0,1.0991649,0,-1.1953625)"
       gradientUnits="userSpaceOnUse" /><radialGradient
       inkscape:collect="always"
       xlink:href="#linearGradient1"
       id="radialGradient1"
       gradientUnits="userSpaceOnUse"
       gradientTransform="matrix(1,0,0,1.0991649,0,-1.1953625)"
       cx="11.782247"
       cy="12.054285"
       fx="11.782247"
       fy="12.054285"
       r="10.917013" /><radialGradient
       inkscape:collect="always"
       xlink:href="#linearGradient1"
       id="radialGradient2"
       gradientUnits="userSpaceOnUse"
       gradientTransform="matrix(1,0,0,1.0991649,0,-1.1953625)"
       cx="11.782247"
       cy="12.054285"
       fx="11.782247"
       fy="12.054285"
       r="10.917013" /></defs><sodipodi:namedview
     id="namedview1"
     pagecolor="#ffffff"
     bordercolor="#000000"
     borderopacity="0.25"
     inkscape:showpageshadow="2"
     inkscape:pageopacity="0.0"
     inkscape:pagecheckerboard="0"
     inkscape:deskcolor="#d1d1d1"
     inkscape:zoom="22.05"
     inkscape:cx="17.482993"
     inkscape:cy="15.646259"
     inkscape:window-width="3840"
     inkscape:window-height="2036"
     inkscape:window-x="-12"
     inkscape:window-y="-12"
     inkscape:window-maximized="1"
     inkscape:current-layer="svg1" /><g
     id="path1"
     style="opacity:1;fill:url(#radialGradient3)"
     transform="matrix(0.9818588,0,0,0.9818588,0.21374407,0.21867917)"><path
       style="baseline-shift:baseline;display:inline;overflow:visible;vector-effect:none;fill:url(#radialGradient1);stroke:none;stroke-linecap:butt;stroke-linejoin:miter;enable-background:accumulate;stop-color:#000000;stop-opacity:1"
       d="M 21.558195,16.399257 V 7.7095834 A 2.1724184,2.1724184 0 0 0 20.471986,5.8304415 L 12.868522,1.4856047 a 2.1724184,2.1724184 0 0 0 -2.172419,0 L 3.0926388,5.8304415 A 2.1724184,2.1724184 0 0 0 2.0064296,7.7095834 v 8.6896736 a 2.1724184,2.1724184 0 0 0 1.0862092,1.879142 l 7.6034642,4.344836 a 2.1724184,2.1724184 0 0 0 2.172419,0 l 7.603464,-4.344836 a 2.1724184,2.1724184 0 0 0 1.086209,-1.879142 z"
       id="path12" /><path
       style="baseline-shift:baseline;display:inline;overflow:visible;vector-effect:none;fill:url(#radialGradient2);stroke:none;stroke-linecap:butt;stroke-linejoin:miter;enable-background:accumulate;stop-color:#000000;stop-opacity:1"
       d="m 11.783203,0.0546875 c -0.570318,0 -1.142027,0.14808195 -1.652344,0.44140625 h -0.002 c -0.0013,7.3454e-4 -0.0026,0.001217 -0.0039,0.001953 L 2.5273438,4.8398437 a 1.140634,1.140634 0 0 0 -0.00586,0.00195 c -1.0224,0.5902856 -1.6550385,1.6866252 -1.65624942,2.8671907 v 8.6894526 a 1.140634,1.140634 0 0 0 0,0.002 c 0.001211,1.180565 0.63384942,2.274952 1.65625002,2.865234 a 1.140634,1.140634 0 0 0 0.00586,0.0039 L 10.125,23.611328 c 1.021603,0.589823 2.286121,0.589656 3.308594,0.002 l 7.603515,-4.34375 a 1.140634,1.140634 0 0 0 0.0059,-0.0039 c 1.0224,-0.590283 1.655039,-1.684669 1.65625,-2.865234 a 1.140634,1.140634 0 0 0 0,-0.002 V 7.7089844 c -0.0012,-1.1805654 -0.63385,-2.276905 -1.65625,-2.8671875 a 1.140634,1.140634 0 0 0 -0.0059,-0.00195 L 13.433594,0.49609375 C 12.923278,0.20277182 12.353519,0.0546875 11.783203,0.0546875 Z m -0.517578,2.4179688 c 0.320854,-0.1852453 0.712349,-0.1852453 1.033203,0 a 1.140634,1.140634 0 0 0 0.0039,0.00391 l 7.59961,4.3417969 c 0.319993,0.1847479 0.514608,0.5212363 0.515625,0.890625 v 8.6894528 c -3.8e-4,0.370104 -0.195106,0.707527 -0.515625,0.892579 l -7.59961,4.341796 a 1.140634,1.140634 0 0 0 -0.0039,0.002 c -0.320854,0.185245 -0.712349,0.185245 -1.033203,0 a 1.140634,1.140634 0 0 0 -0.0039,-0.002 l -7.5996156,-4.3418 C 3.3415902,17.105964 3.146864,16.768541 3.1464844,16.398437 v -8.6874995 -0.00195 c 0.00102,-0.3693888 0.1956317,-0.7058771 0.515625,-0.890625 l 7.5996096,-4.3418 a 1.140634,1.140634 0 0 0 0.0039,-0.00391 z"
       id="path13" /></g><g
     style="fill:none;stroke:#d5f6ff;stroke-width:2.22939893;stroke-linecap:round;stroke-linejoin:round;stroke-dasharray:none;stroke-opacity:1"
     id="g2"
     transform="matrix(0.64591401,0,0,0.64591401,3.8680786,4.2490307)"><rect
       width="8"
       height="4"
       x="8"
       y="2"
       rx="1"
       ry="1"
       id="rect1"
       style="stroke:#d5f6ff;stroke-width:2.22939893;stroke-dasharray:none;stroke-opacity:1" /><path
       d="m 16,4 h 2 a 2,2 0 0 1 2,2 v 14 a 2,2 0 0 1 -2,2 H 6 A 2,2 0 0 1 4,20 V 6 A 2,2 0 0 1 6,4 h 2"
       id="path1-1"
       style="stroke:#d5f6ff;stroke-width:2.22939893;stroke-dasharray:none;stroke-opacity:1" /></g><g
     style="fill:none;stroke:#dbe3e2;stroke-width:1.1082;stroke-linecap:round;stroke-linejoin:round;stroke-dasharray:none"
     id="g3"
     transform="matrix(1.1318344,0,0,1.1318344,-1.7997661,-1.5277276)"><path
       d="M 21,16 V 8 A 2,2 0 0 0 20,6.27 l -7,-4 a 2,2 0 0 0 -2,0 l -7,4 A 2,2 0 0 0 3,8 v 8 a 2,2 0 0 0 1,1.73 l 7,4 a 2,2 0 0 0 2,0 l 7,-4 A 2,2 0 0 0 21,16 Z"
       id="path1-8"
       style="stroke:#dbe3e2;stroke-width:1.1082;stroke-dasharray:none" /></g></svg>
